<svg width="512" height="512" viewBox="0 0 512 512" fill="none" xmlns="http://www.w3.org/2000/svg">
<rect x="15" y="15" width="482" height="482" rx="85" fill="white" stroke="white" stroke-width="30"/>
<path d="M292.998 282.334C292.998 254.72 315.384 232.335 342.998 232.335H388.562C416.177 232.335 438.562 254.72 438.562 282.335V411.864H292.998V282.334Z" fill="black"/>
<circle cx="365.998" cy="177.996" r="39" fill="black"/>
<path d="M292.998 250.832H438.562V271.211H292.998V250.832Z" fill="white"/>
<path d="M292.998 290.59H438.562V310.969H292.998V290.59Z" fill="white"/>
<rect x="292.998" y="331.348" width="145.565" height="20.379" fill="white"/>
<rect x="292.998" y="371.106" width="145.565" height="20.379" fill="white"/>
<path d="M232.998 217.335H278.562C303.415 217.335 323.562 237.482 323.562 262.335V386.864H187.998V262.335C187.998 237.482 208.145 217.335 232.998 217.335Z" fill="white" stroke="black" stroke-width="10"/>
<circle cx="255.998" cy="157.996" r="39" fill="black"/>
<path d="M72.9978 243.31C72.9978 215.695 95.3836 193.31 122.998 193.31H168.562C196.177 193.31 218.562 215.696 218.562 243.31V372.839H72.9978V243.31Z" fill="black"/>
<circle cx="145.998" cy="139.001" r="39" fill="black"/>
</svg>
