<svg width="1160" height="256" viewBox="0 0 1160 256" fill="none" xmlns="http://www.w3.org/2000/svg">
<path d="M444.016 65.3211V196.085H422.837L360.902 107.015H359.811V196.085H336V65.3211H357.308L419.178 154.455H420.333V65.3211H444.016Z" fill="black"/>
<path d="M511.935 198C502.308 198 493.965 195.893 486.905 191.679C479.845 187.465 474.368 181.569 470.475 173.993C466.624 166.416 464.698 157.562 464.698 147.431C464.698 137.301 466.624 128.426 470.475 120.806C474.368 113.187 479.845 107.27 486.905 103.056C493.965 98.842 502.308 96.735 511.935 96.735C521.562 96.735 529.906 98.842 536.966 103.056C544.026 107.27 549.481 113.187 553.332 120.806C557.226 128.426 559.172 137.301 559.172 147.431C559.172 157.562 557.226 166.416 553.332 173.993C549.481 181.569 544.026 187.465 536.966 191.679C529.906 195.893 521.562 198 511.935 198ZM512.064 179.484C517.284 179.484 521.648 178.058 525.157 175.206C528.665 172.311 531.275 168.438 532.987 163.585C534.741 158.733 535.618 153.327 535.618 147.367C535.618 141.366 534.741 135.938 532.987 131.086C531.275 126.191 528.665 122.296 525.157 119.401C521.648 116.507 517.284 115.06 512.064 115.06C506.715 115.06 502.265 116.507 498.714 119.401C495.206 122.296 492.574 126.191 490.82 131.086C489.108 135.938 488.253 141.366 488.253 147.367C488.253 153.327 489.108 158.733 490.82 163.585C492.574 168.438 495.206 172.311 498.714 175.206C502.265 178.058 506.715 179.484 512.064 179.484Z" fill="black"/>
<path d="M628.118 98.0119V115.89H571.447V98.0119H628.118ZM585.438 74.5154H608.672V166.586C608.672 169.693 609.142 172.077 610.084 173.737C611.068 175.355 612.351 176.461 613.935 177.057C615.518 177.653 617.272 177.951 619.197 177.951C620.652 177.951 621.979 177.845 623.177 177.632C624.417 177.419 625.359 177.228 626.001 177.057L629.916 195.127C628.675 195.552 626.899 196.021 624.589 196.531C622.321 197.042 619.54 197.34 616.245 197.425C610.426 197.596 605.185 196.723 600.521 194.808C595.857 192.849 592.156 189.827 589.418 185.741C586.722 181.655 585.396 176.547 585.438 170.417V74.5154Z" fill="black"/>
<path d="M647.549 196.085V98.0119H670.783V196.085H647.549ZM659.23 84.0928C655.55 84.0928 652.384 82.8797 649.731 80.4534C647.079 77.9845 645.752 75.0262 645.752 71.5783C645.752 68.0879 647.079 65.1295 649.731 62.7033C652.384 60.2344 655.55 59 659.23 59C662.953 59 666.119 60.2344 668.729 62.7033C671.382 65.1295 672.708 68.0879 672.708 71.5783C672.708 75.0262 671.382 77.9845 668.729 80.4534C666.119 82.8797 662.953 84.0928 659.23 84.0928Z" fill="black"/>
<path d="M782.73 98.0119L747.623 196.085H721.951L686.844 98.0119H711.618L734.273 170.864H735.3L758.02 98.0119H782.73Z" fill="black"/>
<path d="M839.096 198C829.213 198 820.677 195.957 813.488 191.87C806.343 187.742 800.845 181.91 796.994 174.376C793.143 166.799 791.218 157.881 791.218 147.623C791.218 137.535 793.143 128.681 796.994 121.062C800.888 113.4 806.322 107.44 813.296 103.184C820.27 98.8846 828.464 96.735 837.877 96.735C843.953 96.735 849.686 97.714 855.078 99.672C860.511 101.588 865.304 104.567 869.454 108.611C873.647 112.655 876.942 117.805 879.338 124.062C881.734 130.277 882.932 137.684 882.932 146.282V153.369H802.128V137.79H860.661C860.618 133.363 859.656 129.426 857.773 125.978C855.89 122.488 853.259 119.742 849.879 117.741C846.541 115.741 842.648 114.74 838.198 114.74C833.449 114.74 829.277 115.89 825.683 118.188C822.089 120.444 819.286 123.424 817.275 127.127C815.307 130.788 814.301 134.81 814.259 139.195V152.795C814.259 158.499 815.307 163.394 817.403 167.48C819.5 171.524 822.431 174.631 826.196 176.802C829.961 178.93 834.368 179.994 839.417 179.994C842.798 179.994 845.857 179.526 848.595 178.59C851.334 177.611 853.708 176.185 855.719 174.312C857.73 172.439 859.249 170.119 860.276 167.352L881.969 169.779C880.6 175.482 877.99 180.463 874.139 184.719C870.331 188.933 865.453 192.211 859.506 194.552C853.559 196.851 846.755 198 839.096 198Z" fill="black"/>
<path d="M925.821 138.62V196.085H902.587V98.0119H924.794V114.677H925.949C928.217 109.186 931.832 104.823 936.796 101.588C941.802 98.3525 947.984 96.735 955.344 96.735C962.147 96.735 968.073 98.1822 973.122 101.077C978.214 103.971 982.15 108.164 984.931 113.655C987.755 119.146 989.146 125.808 989.103 133.64V196.085H965.869V137.215C965.869 130.66 964.158 125.531 960.735 121.828C957.355 118.124 952.67 116.273 946.679 116.273C942.615 116.273 938.999 117.167 935.833 118.955C932.709 120.7 930.249 123.232 928.452 126.553C926.698 129.873 925.821 133.895 925.821 138.62Z" fill="black"/>
<path d="M1061.95 98.0119V115.89H1005.28V98.0119H1061.95ZM1019.27 74.5154H1042.5V166.586C1042.5 169.693 1042.97 172.077 1043.91 173.737C1044.9 175.355 1046.18 176.461 1047.76 177.057C1049.35 177.653 1051.1 177.951 1053.03 177.951C1054.48 177.951 1055.81 177.845 1057.01 177.632C1058.25 177.419 1059.19 177.228 1059.83 177.057L1063.75 195.127C1062.5 195.552 1060.73 196.021 1058.42 196.531C1056.15 197.042 1053.37 197.34 1050.07 197.425C1044.26 197.596 1039.01 196.723 1034.35 194.808C1029.69 192.849 1025.99 189.827 1023.25 185.741C1020.55 181.655 1019.22 176.547 1019.27 170.417V74.5154Z" fill="black"/>
<path d="M1157.88 123.935L1136.7 126.233C1136.1 124.105 1135.06 122.104 1133.56 120.232C1132.1 118.359 1130.13 116.847 1127.65 115.698C1125.17 114.549 1122.13 113.974 1118.54 113.974C1113.7 113.974 1109.64 115.017 1106.34 117.103C1103.09 119.189 1101.49 121.892 1101.53 125.212C1101.49 128.064 1102.54 130.384 1104.68 132.171C1106.86 133.959 1110.45 135.428 1115.46 136.577L1132.27 140.152C1141.6 142.153 1148.53 145.324 1153.07 149.666C1157.65 154.008 1159.96 159.69 1160 166.714C1159.96 172.886 1158.14 178.334 1154.54 183.059C1150.99 187.742 1146.05 191.402 1139.72 194.041C1133.39 196.68 1126.11 198 1117.9 198C1105.83 198 1096.12 195.489 1088.76 190.466C1081.4 185.4 1077.01 178.356 1075.6 169.332L1098.26 167.161C1099.29 171.588 1101.47 174.929 1104.8 177.185C1108.14 179.441 1112.48 180.569 1117.83 180.569C1123.35 180.569 1127.78 179.441 1131.12 177.185C1134.5 174.929 1136.19 172.141 1136.19 168.821C1136.19 166.011 1135.1 163.692 1132.92 161.861C1130.78 160.031 1127.44 158.626 1122.9 157.647L1106.09 154.135C1096.63 152.177 1089.64 148.879 1085.1 144.239C1080.57 139.557 1078.32 133.64 1078.36 126.489C1078.32 120.444 1079.97 115.209 1083.3 110.782C1086.68 106.312 1091.37 102.864 1097.36 100.438C1103.39 97.9694 1110.35 96.735 1118.22 96.735C1129.77 96.735 1138.86 99.1825 1145.5 104.078C1152.17 108.973 1156.3 115.592 1157.88 123.935Z" fill="black"/>
<rect x="7.5" y="7.5" width="241" height="241" rx="42.5" fill="white" stroke="black" stroke-width="15"/>
<path d="M146.499 152.558C146.499 132.46 162.792 116.167 182.89 116.167C202.988 116.167 219.281 132.46 219.281 152.558V205.932H146.499V152.558Z" fill="black"/>
<circle cx="182.999" cy="88.9979" r="19.5" fill="black"/>
<path d="M146.499 125.416H219.281V135.605H146.499V125.416Z" fill="white"/>
<path d="M146.499 145.295H219.281V155.484H146.499V145.295Z" fill="white"/>
<rect x="146.499" y="165.674" width="72.7823" height="10.1895" fill="white"/>
<rect x="146.499" y="185.553" width="72.7823" height="10.1895" fill="white"/>
<path d="M127.89 108.667C146.608 108.668 161.781 123.841 161.781 142.559V193.432H93.9988V142.558C93.999 123.841 109.173 108.667 127.89 108.667Z" fill="white" stroke="black" stroke-width="5"/>
<circle cx="127.999" cy="78.9979" r="19.5" fill="black"/>
<path d="M36.499 133.046C36.499 112.948 52.7919 96.6549 72.8902 96.6549C92.9884 96.6549 109.281 112.948 109.281 133.046V186.42H36.499V133.046Z" fill="black"/>
<circle cx="72.9989" cy="69.5003" r="19.5" fill="black"/>
</svg>
